<?xml version="1.0" standalone="no"?><!DOCTYPE svg PUBLIC "-//W3C//DTD SVG 1.1//EN" "http://www.w3.org/Graphics/SVG/1.1/DTD/svg11.dtd"><svg t="1629166313998" class="icon" viewBox="0 0 1024 1024" version="1.1" xmlns="http://www.w3.org/2000/svg" p-id="36423" xmlns:xlink="http://www.w3.org/1999/xlink" width="200" height="200"><defs><style type="text/css"></style></defs><path d="M570.19196999 21.284571a82.16380999 82.16380999 0 0 0-110.372572 0L13.526065 444.97676199a41.155048 41.155048 0 0 0 55.12533301 61.147428l7.09485699-6.75352299V941.592381A82.310095 82.310095 0 0 0 158.105112 1024h239.616V776.167619a57.953524 57.953524 0 0 1 58.00228601-58.026667h112.737524a57.977905 57.977905 0 0 1 58.02666699 58.026667V1024h245.27238101a82.38323801 82.38323801 0 0 0 82.38323799-82.407619V504.758857c18.28571399 16.554667 44.227048 15.286857 59.46514201-1.657905a41.155048 41.155048 0 0 0-2.97447599-58.148571L570.19196999 21.308952z" fill="#CCCCCC" p-id="36424"></path></svg>