<?xml version="1.0" standalone="no"?><!DOCTYPE svg PUBLIC "-//W3C//DTD SVG 1.1//EN" "http://www.w3.org/Graphics/SVG/1.1/DTD/svg11.dtd"><svg t="1629171178462" class="icon" viewBox="0 0 1204 1024" version="1.1" xmlns="http://www.w3.org/2000/svg" p-id="51183" xmlns:xlink="http://www.w3.org/1999/xlink" width="235.15625" height="200"><defs><style type="text/css"></style></defs><path d="M276.841 785.288h787.155a37.707 37.707 0 0 0 35.178-35.027s53.97-300.333 78.607-507.181c7.077-57.224-19.908-85.294-72.734-85.294h-859.86L231.033 35.087A36.593 36.593 0 0 0 198.174 0H39.846a39.755 39.755 0 0 0 0 79.45h123.18l79.813 670.931a35.84 35.84 0 0 0 34.002 34.937z m824.712-549.226c-21.233 165.948-56.32 387.976-70.385 470.739H310.874l-56.32-470.739h846.999z m-786.01 628.676a78.306 78.306 0 1 0 78.607 78.306 78.426 78.426 0 0 0-78.547-78.306h-0.06z m709.722 0a78.306 78.306 0 1 0 78.607 78.306 78.426 78.426 0 0 0-78.577-78.306z" fill="#F13F3F" p-id="51184"></path></svg>